<svg width="80" height="80" viewBox="0 0 80 80" fill="none" xmlns="http://www.w3.org/2000/svg">
<g clip-path="url(#clip0_36_421)">
<path d="M71.5789 0H8.42105C3.77023 0 0 3.77023 0 8.42105V71.5789C0 76.2298 3.77023 80 8.42105 80H71.5789C76.2298 80 80 76.2298 80 71.5789V8.42105C80 3.77023 76.2298 0 71.5789 0Z" fill="white"/>
<path d="M46.3158 16.8421H42.1053V21.0526H46.3158V16.8421Z" fill="#707070"/>
<path d="M50.5263 16.8421H46.3158V21.0526H50.5263V16.8421Z" fill="#707070"/>
<path d="M46.3158 21.0526H42.1053V25.2631H46.3158V21.0526Z" fill="#707070"/>
<path d="M46.3158 25.2632H42.1053V29.4737H46.3158V25.2632Z" fill="#707070"/>
<path d="M46.3158 29.4737H42.1053V33.6842H46.3158V29.4737Z" fill="#707070"/>
<path d="M54.7368 16.8421H50.5263V21.0526H54.7368V16.8421Z" fill="#707070"/>
<path d="M58.9473 16.8421H54.7368V21.0526H58.9473V16.8421Z" fill="#707070"/>
<path d="M63.1579 16.8421H58.9474V21.0526H63.1579V16.8421Z" fill="#707070"/>
<path d="M46.3158 33.6842H42.1053V37.8947H46.3158V33.6842Z" fill="#707070"/>
<path d="M50.5263 33.6842H46.3158V37.8947H50.5263V33.6842Z" fill="#707070"/>
<path d="M54.7368 33.6842H50.5263V37.8947H54.7368V33.6842Z" fill="#707070"/>
<path d="M58.9473 33.6842H54.7368V37.8947H58.9473V33.6842Z" fill="#707070"/>
<path d="M63.1579 33.6842H58.9474V37.8947H63.1579V33.6842Z" fill="#707070"/>
<path d="M63.1579 29.4737H58.9474V33.6842H63.1579V29.4737Z" fill="#707070"/>
<path d="M63.1579 25.2632H58.9474V29.4737H63.1579V25.2632Z" fill="#707070"/>
<path d="M54.7368 25.2632H50.5263V29.4737H54.7368V25.2632Z" fill="#707070"/>
<path d="M63.1579 21.0526H58.9474V25.2631H63.1579V21.0526Z" fill="#707070"/>
<path d="M63.1579 8.42108H58.9474V12.6316H63.1579V8.42108Z" fill="#707070"/>
<path d="M67.3684 8.42108H63.1579V12.6316H67.3684V8.42108Z" fill="#707070"/>
<path d="M71.5789 8.42108H67.3684V12.6316H71.5789V8.42108Z" fill="#707070"/>
<path d="M71.5789 16.8421H67.3684V21.0526H71.5789V16.8421Z" fill="#707070"/>
<path d="M71.5789 12.6316H67.3684V16.8421H71.5789V12.6316Z" fill="#707070"/>
<path d="M21.0526 16.8421H16.8421V21.0526H21.0526V16.8421Z" fill="#707070"/>
<path d="M25.2631 16.8421H21.0526V21.0526H25.2631V16.8421Z" fill="#707070"/>
<path d="M21.0526 21.0526H16.8421V25.2631H21.0526V21.0526Z" fill="#707070"/>
<path d="M21.0526 25.2632H16.8421V29.4737H21.0526V25.2632Z" fill="#707070"/>
<path d="M21.0526 29.4737H16.8421V33.6842H21.0526V29.4737Z" fill="#707070"/>
<path d="M29.4737 16.8421H25.2632V21.0526H29.4737V16.8421Z" fill="#707070"/>
<path d="M12.6316 8.42108H8.42108V12.6316H12.6316V8.42108Z" fill="#707070"/>
<path d="M16.8421 8.42108H12.6316V12.6316H16.8421V8.42108Z" fill="#707070"/>
<path d="M12.6316 12.6316H8.42108V16.8421H12.6316V12.6316Z" fill="#707070"/>
<path d="M12.6316 16.8421H8.42108V21.0526H12.6316V16.8421Z" fill="#707070"/>
<path d="M21.0526 8.42108H16.8421V12.6316H21.0526V8.42108Z" fill="#707070"/>
<path d="M33.6842 16.8421H29.4737V21.0526H33.6842V16.8421Z" fill="#707070"/>
<path d="M37.8947 16.8421H33.6842V21.0526H37.8947V16.8421Z" fill="#707070"/>
<path d="M21.0526 33.6842H16.8421V37.8947H21.0526V33.6842Z" fill="#707070"/>
<path d="M25.2631 33.6842H21.0526V37.8947H25.2631V33.6842Z" fill="#707070"/>
<path d="M29.4737 33.6842H25.2632V37.8947H29.4737V33.6842Z" fill="#707070"/>
<path d="M33.6842 33.6842H29.4737V37.8947H33.6842V33.6842Z" fill="#707070"/>
<path d="M37.8947 33.6842H33.6842V37.8947H37.8947V33.6842Z" fill="#707070"/>
<path d="M37.8947 29.4737H33.6842V33.6842H37.8947V29.4737Z" fill="#707070"/>
<path d="M37.8947 25.2632H33.6842V29.4737H37.8947V25.2632Z" fill="#707070"/>
<path d="M46.3158 42.1053H42.1053V46.3158H46.3158V42.1053Z" fill="#707070"/>
<path d="M54.7368 42.1053H50.5263V46.3158H54.7368V42.1053Z" fill="#707070"/>
<path d="M63.1579 42.1053H58.9474V46.3158H63.1579V42.1053Z" fill="#707070"/>
<path d="M50.5263 46.3158H46.3158V50.5263H50.5263V46.3158Z" fill="#707070"/>
<path d="M58.9473 46.3158H54.7368V50.5263H58.9473V46.3158Z" fill="#707070"/>
<path d="M46.3158 50.5263H42.1053V54.7368H46.3158V50.5263Z" fill="#707070"/>
<path d="M54.7368 50.5263H50.5263V54.7368H54.7368V50.5263Z" fill="#707070"/>
<path d="M63.1579 50.5263H58.9474V54.7368H63.1579V50.5263Z" fill="#707070"/>
<path d="M46.3158 58.9474H42.1053V63.1579H46.3158V58.9474Z" fill="#707070"/>
<path d="M54.7368 58.9474H50.5263V63.1579H54.7368V58.9474Z" fill="#707070"/>
<path d="M63.1579 58.9474H58.9474V63.1579H63.1579V58.9474Z" fill="#707070"/>
<path d="M50.5263 54.7368H46.3158V58.9473H50.5263V54.7368Z" fill="#707070"/>
<path d="M58.9473 54.7368H54.7368V58.9473H58.9473V54.7368Z" fill="#707070"/>
<path d="M29.4737 25.2632H25.2632V29.4737H29.4737V25.2632Z" fill="#707070"/>
<path d="M37.8947 21.0526H33.6842V25.2631H37.8947V21.0526Z" fill="#707070"/>
<path d="M21.0526 42.1053H16.8421V46.3158H21.0526V42.1053Z" fill="#707070"/>
<path d="M25.2631 42.1053H21.0526V46.3158H25.2631V42.1053Z" fill="#707070"/>
<path d="M21.0526 46.3158H16.8421V50.5263H21.0526V46.3158Z" fill="#707070"/>
<path d="M21.0526 50.5263H16.8421V54.7368H21.0526V50.5263Z" fill="#707070"/>
<path d="M21.0526 54.7368H16.8421V58.9473H21.0526V54.7368Z" fill="#707070"/>
<path d="M29.4737 42.1053H25.2632V46.3158H29.4737V42.1053Z" fill="#707070"/>
<path d="M33.6842 42.1053H29.4737V46.3158H33.6842V42.1053Z" fill="#707070"/>
<path d="M37.8947 42.1053H33.6842V46.3158H37.8947V42.1053Z" fill="#707070"/>
<path d="M21.0526 58.9474H16.8421V63.1579H21.0526V58.9474Z" fill="#707070"/>
<path d="M25.2631 58.9474H21.0526V63.1579H25.2631V58.9474Z" fill="#707070"/>
<path d="M29.4737 58.9474H25.2632V63.1579H29.4737V58.9474Z" fill="#707070"/>
<path d="M12.6316 58.9474H8.42108V63.1579H12.6316V58.9474Z" fill="#707070"/>
<path d="M12.6316 63.1579H8.42108V67.3684H12.6316V63.1579Z" fill="#707070"/>
<path d="M12.6316 67.3684H8.42108V71.5789H12.6316V67.3684Z" fill="#707070"/>
<path d="M16.8421 67.3684H12.6316V71.5789H16.8421V67.3684Z" fill="#707070"/>
<path d="M21.0526 67.3684H16.8421V71.5789H21.0526V67.3684Z" fill="#707070"/>
<path d="M33.6842 58.9474H29.4737V63.1579H33.6842V58.9474Z" fill="#707070"/>
<path d="M37.8947 58.9474H33.6842V63.1579H37.8947V58.9474Z" fill="#707070"/>
<path d="M37.8947 54.7368H33.6842V58.9473H37.8947V54.7368Z" fill="#707070"/>
<path d="M37.8947 50.5263H33.6842V54.7368H37.8947V50.5263Z" fill="#707070"/>
<path d="M63.1579 67.3684H58.9474V71.5789H63.1579V67.3684Z" fill="#707070"/>
<path d="M67.3684 67.3684H63.1579V71.5789H67.3684V67.3684Z" fill="#707070"/>
<path d="M71.5789 67.3684H67.3684V71.5789H71.5789V67.3684Z" fill="#707070"/>
<path d="M71.5789 63.1579H67.3684V67.3684H71.5789V63.1579Z" fill="#707070"/>
<path d="M71.5789 58.9474H67.3684V63.1579H71.5789V58.9474Z" fill="#707070"/>
<path d="M29.4737 50.5263H25.2632V54.7368H29.4737V50.5263Z" fill="#707070"/>
<path d="M37.8947 46.3158H33.6842V50.5263H37.8947V46.3158Z" fill="#707070"/>
</g>
<defs>
<clipPath id="clip0_36_421">
<rect width="80" height="80" fill="white"/>
</clipPath>
</defs>
</svg>
